<svg height="512pt" viewBox="-4 0 512 512.00388" width="512pt" xmlns="http://www.w3.org/2000/svg"><path d="m188.320312 100.136719c2.632813 2.191406 2.6875 22.644531.878907 25.035156 2.078125.160156 4.160156.316406 6.21875.566406 37.332031 4.535157 74.851562 14.570313 112.195312 10.023438 5.695313-.691407 11.472657-1.039063 17.320313-1.039063 5.386718 0 10.707031-26.582031 15.960937-26.050781 26.3125-8.964844 9.621094-27.832031 99.449219-45.796875 0 0-99.25-53.898438-161.691406 17.964844v-62.878906h-35.933594s-.4375 53.898437 0 62.878906c-36.371094-44.914063-71.421875-17.964844-98.371094-71.863282.011719-.007812-7.984375 48.007813 43.972656 91.160157zm0 0" fill="#23a24d"/><path d="m324.941406 107.800781c-5.847656 0-11.625.347657-17.320312 1.050781-37.339844 4.535157-74.851563 4.535157-112.195313 0-5.695312-.703124-11.472656-1.050781-17.320312-1.050781-93.402344 0-169.121094 81.5-169.121094 193.113281 0 111.613282 75.71875 202.105469 169.121094 202.105469 14.617187 0 28.800781-2.21875 42.320312-6.375 20.175781-6.21875 42.011719-6.21875 62.179688 0 13.527343 4.167969 27.703125 6.375 42.316406 6.375 93.425781 0 169.140625-90.484375 169.140625-202.105469 0-111.621093-75.714844-193.113281-169.121094-193.113281zm0 0" fill="#ed0000"/><g fill="#4d007e"><path d="m324.941406 512.003906c-15.207031 0-30.335937-2.28125-44.960937-6.773437-18.339844-5.667969-38.554688-5.667969-56.894531 0-14.636719 4.492187-29.761719 6.773437-44.96875 6.773437-98.210938 0-178.117188-94.6875-178.117188-211.082031 0-113.335937 78.234375-202.105469 178.105469-202.105469 6.164062 0 12.351562.378906 18.398437 1.105469 36.507813 4.453125 73.523438 4.453125 110.03125 0 6.054688-.726563 12.242188-1.105469 18.40625-1.105469 99.871094 0 178.105469 88.769532 178.105469 202.105469 0 116.394531-79.902344 211.082031-178.105469 211.082031zm-73.417968-28.980468c11.425781 0 22.863281 1.679687 33.742187 5.03125 12.90625 3.972656 26.253906 5.984374 39.675781 5.984374 88.300782 0 160.140625-86.632812 160.140625-193.117187 0-104.980469-68.847656-184.140625-160.140625-184.140625-5.433594 0-10.894531.332031-16.230468.972656-37.945313 4.632813-76.429688 4.632813-114.371094 0-5.328125-.640625-10.789063-.972656-16.234375-.972656-91.292969 0-160.136719 79.160156-160.136719 184.140625 0 106.484375 71.835938 193.117187 160.136719 193.117187 13.421875 0 26.769531-2.011718 39.679687-5.984374 10.878906-3.351563 22.3125-5.03125 33.738282-5.03125zm0 0"/><path d="m178.105469 431.15625c-52.71875 0-97.257813-59.644531-97.257813-130.234375 0-69.121094 41.816406-121.25 97.257813-121.25 2.910156 0 5.820312.171875 8.625.503906 10.257812 1.265625 19.296875 8.261719 26.023437 14.21875 3.710938 3.296875 4.058594 8.972657.761719 12.683594-3.285156 3.691406-8.964844 4.050781-12.683594.765625-6.90625-6.121094-12.234375-9.335938-16.285156-9.839844-2.09375-.25-4.277344-.367187-6.449219-.367187-45.203125 0-79.292968 44.402343-79.292968 103.285156 0 60.851563 36.308593 112.269531 79.292968 112.269531 5.355469 0 10.707032-.808594 15.890625-2.417968 4.589844-1.410157 10.582031-7.246094 15.28125-12.160157 3.429688-3.585937 9.117188-3.71875 12.699219-.289062 3.585938 3.421875 3.71875 9.109375.289062 12.695312-6.925781 7.257813-14.507812 14.324219-22.988281 16.941407-6.878906 2.117187-14.003906 3.195312-21.164062 3.195312zm0 0"/><path d="m251.523438 121.21875c-19.105469 0-38.210938-1.148438-57.183594-3.457031-1.90625-.226563-3.855469-.378907-5.804688-.53125-3.277344-.242188-6.152344-2.261719-7.507812-5.253907-.945313-2.085937-1.042969-4.421874-.351563-6.539062-53.214843-45.507812-45.542969-95.804688-45.183593-97.941406.636718-3.84375 3.671874-6.835938 7.527343-7.4101565 3.84375-.5234375 7.636719 1.3906245 9.367188 4.8671875 12.855469 25.710937 26.753906 30.289063 44.351562 36.09375 11.433594 3.773437 23.949219 7.894531 36.800781 18.011719.019532-17.929688.199219-39.757813.207032-41.167969.046875-4.941406 4.050781-8.914063 8.984375-8.914063h35.929687c4.960938 0 8.984375 4.015626 8.984375 8.984376v41.761718c66.058594-53.007812 156.015625-5.28125 156.996094-4.742187 3.320313 1.804687 5.15625 5.496093 4.589844 9.234375-.566407 3.734375-3.414063 6.726562-7.125 7.464844-57.527344 11.507812-68.585938 22.644531-77.476563 31.609374-4.996094 5.039063-10.167968 10.25-20.839844 13.878907-1.214843.421875-2.507812.546875-3.792968.441406-12.089844-1.203125-21.460938-1.035156-31.304688.160156-18.953125 2.300781-38.0625 3.449219-57.167968 3.449219zm-68.933594-14.164062h.089844zm-.019532-.011719s.007813.011719.007813.011719zm16.160157-6.851563c35.789062 4.167969 72.042969 4.078125 107.804687-.261718 10.574219-1.292969 20.761719-1.535157 33.191406-.394532 5.488282-2.183594 8.21875-4.933594 12.164063-8.902344 8.828125-8.902343 19.464844-19.617187 59.132813-30.21875-31.609376-10.292968-86.414063-18.746093-125.578126 26.328126-2.464843 2.820312-6.414062 3.828124-9.929687 2.515624-3.511719-1.3125-5.835937-4.671874-5.835937-8.417968v-53.894532h-18.03125c-.132813 19.554688-.230469 47.535157.054687 53.457032.1875 3.878906-2.136719 7.4375-5.765625 8.828125-3.640625 1.375-7.746094.28125-10.1875-2.746094-15.109375-18.652344-29.445312-23.382813-44.628906-28.378906-11.503906-3.789063-23.253906-7.671875-34.339844-17.355469 4.804688 15.164062 15.207031 34.144531 37.269531 52.46875 2.28125 1.886719 3.855469 4.332031 4.679688 6.972656zm0 0"/><path d="m324.941406 431.15625c-7.167968 0-14.300781-1.078125-21.183594-3.1875-8.488281-2.632812-16.058593-9.691406-22.984374-16.949219-3.421876-3.585937-3.296876-9.273437.285156-12.695312 3.585937-3.441407 9.273437-3.304688 12.703125.289062 4.707031 4.921875 10.699219 10.761719 15.289062 12.179688 5.15625 1.589843 10.511719 2.398437 15.882813 2.398437 42.980468 0 79.292968-51.417968 79.292968-112.269531 0-58.882813-34.09375-103.285156-79.292968-103.285156-2.175782 0-4.359375.125-6.460938.386719-4.042968.484374-9.367187 3.699218-16.277344 9.820312-3.71875 3.304688-9.394531 2.9375-12.683593-.765625-3.285157-3.710937-2.945313-9.386719.765625-12.683594 6.734375-5.957031 15.773437-12.960937 26.023437-14.210937 2.800781-.332032 5.710938-.511719 8.621094-.511719 55.460937 0 97.277344 52.117187 97.277344 121.25 0 70.589844-44.535157 130.234375-97.257813 130.234375zm0 0"/><path d="m143.917969 314.398438h-8.984375c-4.957032 0-8.980469-4.015626-8.980469-8.984376s4.023437-8.984374 8.980469-8.984374h8.984375c4.957031 0 8.980469 4.015624 8.980469 8.984374s-4.023438 8.984376-8.980469 8.984376zm0 0"/><path d="m146.550781 347.695312c-2.300781 0-4.601562-.878906-6.351562-2.628906-3.511719-3.511718-3.511719-9.191406 0-12.703125l6.351562-6.351562c3.503907-3.511719 9.195313-3.511719 12.699219 0 3.511719 3.511719 3.511719 9.191406 0 12.703125l-6.351562 6.351562c-1.75 1.75-4.050782 2.628906-6.347657 2.628906zm0 0"/><path d="m164.515625 374.644531c-2.300781 0-4.597656-.878906-6.351563-2.628906-3.511718-3.515625-3.511718-9.191406 0-12.703125l6.351563-6.351562c3.503906-3.511719 9.199219-3.511719 12.703125 0 3.511719 3.511718 3.511719 9.191406 0 12.703124l-6.351562 6.351563c-1.753907 1.75-4.050782 2.628906-6.351563 2.628906zm0 0"/><path d="m197.816406 386.261719c-4.960937 0-8.984375-4.015625-8.984375-8.984375v-8.980469c0-4.96875 4.023438-8.984375 8.984375-8.984375 4.957032 0 8.980469 4.015625 8.980469 8.984375v8.980469c0 4.960937-4.023437 8.984375-8.980469 8.984375zm0 0"/><path d="m152.898438 287.449219c-2.296876 0-4.597657-.882813-6.347657-2.632813l-6.351562-6.351562c-3.511719-3.511719-3.511719-9.1875 0-12.699219 3.503906-3.515625 9.199219-3.515625 12.699219 0l6.351562 6.347656c3.511719 3.515625 3.511719 9.191407 0 12.703125-1.75 1.75-4.050781 2.632813-6.351562 2.632813zm0 0"/><path d="m170.867188 260.5c-2.300782 0-4.601563-.878906-6.351563-2.632812l-6.351563-6.351563c-3.511718-3.511719-3.511718-9.1875 0-12.699219 3.503907-3.515625 9.199219-3.515625 12.703126 0l6.351562 6.347656c3.511719 3.515626 3.511719 9.191407 0 12.703126-1.753906 1.753906-4.054688 2.632812-6.351562 2.632812zm0 0"/><path d="m197.816406 251.515625c-4.960937 0-8.984375-4.015625-8.984375-8.980469v-8.984375c0-4.96875 4.023438-8.984375 8.984375-8.984375 4.957032 0 8.980469 4.015625 8.980469 8.984375v8.984375c0 4.957032-4.023437 8.980469-8.980469 8.980469zm0 0"/><path d="m368.492188 314.398438h-8.984376c-4.957031 0-8.984374-4.015626-8.984374-8.984376s4.027343-8.984374 8.984374-8.984374h8.984376c4.957031 0 8.980468 4.015624 8.980468 8.984374s-4.023437 8.984376-8.980468 8.984376zm0 0"/><path d="m356.875 347.695312c-2.300781 0-4.597656-.878906-6.351562-2.628906l-6.347657-6.351562c-3.515625-3.511719-3.515625-9.191406 0-12.703125 3.5-3.511719 9.195313-3.511719 12.699219 0l6.351562 6.351562c3.511719 3.511719 3.511719 9.191407 0 12.703125-1.75 1.75-4.050781 2.628906-6.351562 2.628906zm0 0"/><path d="m338.910156 374.636719c-2.300781 0-4.597656-.878907-6.351562-2.632813l-6.351563-6.351562c-3.503906-3.511719-3.503906-9.1875 0-12.699219 3.511719-3.511719 9.199219-3.511719 12.703125 0l6.351563 6.351563c3.503906 3.511718 3.503906 9.1875 0 12.699218-1.761719 1.753906-4.0625 2.632813-6.351563 2.632813zm0 0"/><path d="m305.609375 386.25c-4.957031 0-8.980469-4.011719-8.980469-8.980469v-8.984375c0-4.964844 4.023438-8.980468 8.980469-8.980468 4.960937 0 8.984375 4.015624 8.984375 8.980468v8.984375c0 4.957031-4.023438 8.980469-8.984375 8.980469zm0 0"/><path d="m350.523438 287.449219c-2.296876 0-4.597657-.882813-6.347657-2.632813-3.515625-3.511718-3.515625-9.1875 0-12.703125l6.347657-6.347656c3.503906-3.515625 9.199218-3.515625 12.703124 0 3.511719 3.511719 3.511719 9.1875 0 12.699219l-6.351562 6.351562c-1.75 1.75-4.050781 2.632813-6.351562 2.632813zm0 0"/><path d="m332.558594 260.492188c-2.300782 0-4.597656-.882813-6.351563-2.632813-3.503906-3.511719-3.503906-9.199219 0-12.703125l6.359375-6.351562c3.503906-3.519532 9.199219-3.503907 12.703125 0 3.503907 3.515624 3.503907 9.199218 0 12.703124l-6.359375 6.351563c-1.761718 1.75-4.050781 2.632813-6.351562 2.632813zm0 0"/><path d="m305.609375 251.507812c-4.957031 0-8.980469-4.015624-8.980469-8.984374v-8.980469c0-4.96875 4.023438-8.984375 8.980469-8.984375 4.960937 0 8.984375 4.015625 8.984375 8.984375v8.980469c0 4.960937-4.023438 8.984374-8.984375 8.984374zm0 0"/></g></svg>